<?xml version="1.0" standalone="no"?>
<!DOCTYPE svg PUBLIC "-//W3C//DTD SVG 20010904//EN"
 "http://www.w3.org/TR/2001/REC-SVG-20010904/DTD/svg10.dtd">
<svg version="1.0" xmlns="http://www.w3.org/2000/svg"
 width="396.000000pt" height="510.000000pt" viewBox="0 0 396.000000 510.000000"
 preserveAspectRatio="xMidYMid meet">

<g transform="translate(0.000000,510.000000) scale(0.100000,-0.100000)"
fill="#000000" stroke="none">
<path d="M322 5001 c-94 -27 -211 -110 -254 -179 -18 -29 -22 -58 -29 -220 -5
-103 -14 -212 -20 -242 -9 -41 -13 -596 -16 -2139 l-4 -2084 58 -57 c55 -54
62 -58 128 -69 53 -9 492 -11 1760 -9 l1690 3 58 22 c125 47 196 139 237 306
l21 87 -3 2102 c-3 1954 -5 2109 -21 2182 -34 156 -125 261 -259 300 -51 15
-204 16 -1670 15 -1523 0 -1617 -1 -1676 -18z m3118 -88 c8 -3 18 -5 23 -5 4
1 7 -3 7 -9 0 -6 6 -9 14 -6 8 3 20 -1 26 -8 7 -8 16 -12 21 -10 4 3 12 -3 18
-12 6 -10 11 -13 11 -8 0 17 99 -98 109 -128 8 -21 7 -26 -2 -21 -7 4 -5 -1 4
-12 9 -10 19 -31 23 -46 3 -16 6 -521 6 -1123 0 -1081 -2 -1185 -32 -1185 -5
0 -7 -4 -3 -9 3 -5 -2 -16 -10 -24 -8 -9 -15 -20 -15 -25 0 -21 -97 -95 -155
-118 l-60 -24 -1466 -1 c-1431 0 -1467 0 -1517 19 -28 11 -70 35 -93 53 -47
37 -101 107 -93 120 3 5 1 9 -5 9 -29 0 -32 115 -29 1157 2 578 -1 1049 -5
1046 -5 -3 -5 10 -2 29 3 18 9 56 14 83 4 29 12 49 19 48 6 -2 9 4 6 12 -4 8
2 23 13 33 10 9 12 13 3 7 -9 -6 -8 -1 5 15 51 62 78 89 85 85 4 -3 11 2 14
11 4 9 9 14 13 10 3 -3 13 0 22 8 15 13 33 18 110 34 43 9 2901 4 2921 -5z
m-1279 -3473 l24 -20 -24 -20 c-34 -29 -41 -25 -39 20 1 46 6 48 39 20z m31
-955 c2 -44 0 -55 -12 -55 -12 0 -15 12 -13 52 2 63 1 58 12 58 5 0 11 -25 13
-55z m99 28 c19 -49 -27 -112 -52 -71 -10 15 -12 60 -3 82 10 26 43 19 55 -11z
m80 0 c19 -49 -27 -112 -52 -71 -10 15 -12 60 -3 82 10 26 43 19 55 -11z"/>
<path d="M1920 4880 c-1360 -5 -1457 -6 -1489 -22 -40 -21 -45 -22 -35 -6 4 7
3 8 -5 4 -6 -4 -9 -11 -6 -16 3 -4 -3 -14 -12 -21 -14 -12 -16 -12 -9 1 4 8
-1 4 -11 -10 -10 -14 -28 -35 -40 -47 -12 -13 -20 -23 -18 -23 2 0 -5 -20 -16
-44 -19 -43 -19 -74 -19 -1191 0 -672 4 -1143 10 -1140 5 3 12 -5 16 -17 11
-34 54 -85 99 -116 22 -15 42 -30 45 -34 3 -4 19 -9 35 -12 39 -8 2951 -8
2990 0 16 3 32 8 35 12 15 20 72 52 82 46 6 -4 8 -3 5 3 -3 5 7 25 22 44 16
19 31 44 35 57 4 12 11 20 16 17 6 -3 10 468 10 1140 0 971 -2 1150 -14 1179
-8 19 -12 37 -8 40 3 3 -1 6 -8 6 -7 0 -10 3 -7 7 4 3 -2 13 -13 20 -11 8 -18
18 -16 22 7 10 -9 32 -25 34 -22 4 -40 18 -34 27 3 5 0 12 -6 16 -8 4 -9 3 -5
-4 4 -7 3 -12 -3 -12 -5 0 -12 4 -15 9 -5 8 -84 31 -116 35 -8 0 -670 -1
-1470 -4z m390 -866 c12 -13 11 -14 -11 -4 -20 9 -68 0 -272 -48 -136 -32
-247 -56 -247 -52 0 4 62 22 138 40 75 18 175 43 222 55 103 28 153 30 170 9z
m-110 -652 c0 -5 -26 -15 -57 -22 -32 -7 -66 -17 -77 -22 -12 -7 -16 -7 -12 0
6 10 72 34 121 45 11 3 21 5 23 6 1 0 2 -3 2 -7z m-488 -114 c-6 -6 -47 -22
-89 -34 -53 -15 -72 -18 -58 -8 11 8 38 19 60 24 22 6 51 14 65 19 35 12 35
12 22 -1z m-1180 -623 c22 -48 -27 -115 -53 -73 -10 15 -12 60 -3 82 9 25 43
19 56 -9z m80 0 c22 -48 -27 -115 -53 -73 -10 15 -12 60 -3 82 9 25 43 19 56
-9z m116 13 c17 -17 15 -73 -3 -88 -34 -28 -68 27 -46 76 12 26 30 31 49 12z
m80 0 c17 -17 15 -73 -3 -88 -34 -28 -68 27 -46 76 12 26 30 31 49 12z m2344
-13 c22 -48 -27 -115 -53 -73 -10 15 -12 60 -3 82 9 25 43 19 56 -9z m80 0
c22 -48 -27 -115 -53 -73 -10 15 -12 60 -3 82 9 25 43 19 56 -9z m116 13 c17
-17 15 -73 -3 -88 -34 -28 -68 27 -46 76 12 26 30 31 49 12z m80 0 c17 -17 15
-73 -3 -88 -34 -28 -68 27 -46 76 12 26 30 31 49 12z m-2771 -34 c-3 -3 -12
-4 -19 -1 -8 3 -5 6 6 6 11 1 17 -2 13 -5z m1104 -4 c27 -15 24 -30 -6 -30
-22 0 -25 -4 -25 -39 0 -22 -3 -46 -6 -55 -7 -19 -33 -21 -35 -3 -2 18 -2 19
5 58 6 32 4 37 -16 42 -29 8 -14 24 27 30 17 2 31 5 33 6 2 0 12 -4 23 -9z
m389 -2 c-1 -7 -6 -40 -13 -73 -9 -42 -18 -61 -30 -63 -20 -4 -22 23 -6 83 16
62 17 65 34 65 8 0 15 -6 15 -12z m1127 6 c-3 -3 -12 -4 -19 -1 -8 3 -5 6 6 6
11 1 17 -2 13 -5z m-1338 -34 c19 0 12 -27 -9 -33 -13 -3 -20 -14 -20 -29 0
-31 -15 -52 -30 -43 -7 5 -10 19 -6 38 4 22 1 33 -11 43 -17 12 -17 13 2 20
11 4 24 14 29 22 8 13 10 13 21 -1 7 -10 17 -17 24 -17z m-107 -6 c11 -10 -18
-99 -33 -99 -8 0 -14 8 -13 18 0 9 1 33 2 52 2 27 6 35 20 35 10 0 21 -2 24
-6z m-1175 -20 c-3 -3 -12 -4 -19 -1 -8 3 -5 6 6 6 11 1 17 -2 13 -5z m1341
-22 c4 -28 16 -28 35 1 17 25 31 17 41 -24 5 -25 3 -27 -36 -32 -23 -3 -46 -3
-51 0 -14 8 -27 52 -20 68 8 22 27 13 31 -13z m235 16 c34 -16 35 -43 2 -64
-47 -31 -89 7 -69 60 7 19 31 20 67 4z m1044 6 c-3 -3 -12 -4 -19 -1 -8 3 -5
6 6 6 11 1 17 -2 13 -5z m-1553 -160 c9 -25 7 -83 -4 -105 -14 -24 -40 -25
-40 0 0 30 -36 33 -55 5 -18 -27 -35 -31 -35 -9 0 21 28 75 53 103 24 26 72
30 81 6z m212 -6 c29 -28 30 -38 6 -38 -13 0 -21 -11 -28 -37 -5 -23 -15 -38
-24 -38 -11 0 -14 9 -12 38 2 22 -1 37 -7 37 -6 0 -11 7 -11 15 0 8 7 15 15
15 9 0 18 7 21 15 8 20 12 19 40 -7z m270 -3 c28 -26 28 -26 6 -32 -13 -3 -24
-16 -28 -32 -10 -46 -14 -53 -27 -48 -7 2 -11 18 -9 37 2 22 -3 37 -15 46 -17
12 -17 13 2 20 11 4 24 13 28 21 11 17 12 17 43 -12z m-194 -10 c7 -7 -12 -87
-23 -99 -18 -20 -29 10 -23 57 5 35 11 47 24 47 9 0 19 -2 22 -5z m101 -48 c6
-38 -15 -59 -53 -55 -22 3 -25 7 -22 38 6 64 65 77 75 17z m-290 23 c9 0 17
-7 17 -15 0 -8 -6 -15 -13 -15 -8 0 -24 -11 -37 -25 -28 -30 -40 -24 -40 19 0
39 8 49 35 42 11 -3 28 -6 38 -6z m484 -2 c6 -7 13 -25 17 -40 5 -24 3 -27
-34 -33 -46 -8 -60 -2 -60 26 0 49 51 80 77 47z"/>
<path d="M487 2618 c-7 -26 1 -68 14 -68 11 0 22 42 17 66 -5 26 -25 28 -31 2z"/>
<path d="M567 2618 c-7 -26 1 -68 14 -68 11 0 22 42 17 66 -5 26 -25 28 -31 2z"/>
<path d="M695 2628 c-9 -22 -2 -68 10 -71 14 -3 19 63 6 76 -7 7 -12 5 -16 -5z"/>
<path d="M775 2628 c-9 -22 -2 -68 10 -71 14 -3 19 63 6 76 -7 7 -12 5 -16 -5z"/>
<path d="M3107 2618 c-7 -26 1 -68 14 -68 11 0 22 42 17 66 -5 26 -25 28 -31
2z"/>
<path d="M3186 2615 c-8 -30 0 -65 14 -65 12 0 23 42 18 66 -5 28 -25 27 -32
-1z"/>
<path d="M3315 2628 c-9 -22 -2 -68 10 -71 14 -3 19 63 6 76 -7 7 -12 5 -16
-5z"/>
<path d="M3395 2628 c-9 -22 -2 -68 10 -71 14 -3 19 63 6 76 -7 7 -12 5 -16
-5z"/>
<path d="M1698 2583 c7 -3 16 -2 19 1 4 3 -2 6 -13 5 -11 0 -14 -3 -6 -6z"/>
<path d="M2195 2510 c-3 -5 1 -10 9 -10 8 0 18 5 21 10 3 6 -1 10 -9 10 -8 0
-18 -4 -21 -10z"/>
<path d="M1671 2347 c-8 -10 -7 -14 4 -14 8 0 15 6 15 14 0 7 -2 13 -4 13 -2
0 -9 -6 -15 -13z"/>
<path d="M2244 506 c-7 -28 3 -66 16 -66 12 0 23 42 18 66 -5 28 -27 28 -34 0z"/>
<path d="M2324 506 c-7 -28 3 -66 16 -66 12 0 23 42 18 66 -5 28 -27 28 -34 0z"/>
</g>
</svg>
